Coordinates
version=1
nRows=20
nColumns=38
inDegrees=no

Units are S.I. units (second, meters, Newtons, ...)
If the header above contains a line with 'inDegrees', this indicates whether rotational values are in degrees (yes) or radians (no).

endheader
time	pelvis_tilt	pelvis_list	pelvis_rotation	pelvis_tx	pelvis_ty	pelvis_tz	hip_flexion_r	hip_adduction_r	hip_rotation_r	knee_angle_r	ankle_angle_r	subtalar_angle_r	mtp_angle_r	hip_flexion_l	hip_adduction_l	hip_rotation_l	knee_angle_l	ankle_angle_l	subtalar_angle_l	mtp_angle_l	lumbar_extension	lumbar_bending	lumbar_rotation	arm_flex_r	arm_add_r	arm_rot_r	elbow_flex_r	pro_sup_r	wrist_flex_r	wrist_dev_r	arm_flex_l	arm_add_l	arm_rot_l	elbow_flex_l	pro_sup_l	wrist_flex_l	wrist_dev_l
0.52	0.407521	1.34847	1.35608	0.921507	0.388938	1.00904	0.549675	0.0346356	-0.172713	0.130722	-0.264204	0	0	-0.0676011	-0.0799588	-0.164921	0.363116	-0.0696259	0	0	0.0370666	0.0259844	-0.186611	-0.064808	-0.295556	0.56473	0.340373	1.16867	0	0	-0.26227	-0.119481	-0.577594	0.564755	0.996283	0	0
0.53	0.417739	1.34016	1.34299	0.921281	0.403215	1.00776	0.563275	0.0421578	-0.162796	0.159862	-0.287568	0	0	-0.0572026	-0.0872588	-0.160631	0.396295	-0.0776525	0	0	0.0498011	0.0333872	-0.179459	-0.0711375	-0.298686	0.556258	0.338871	1.16249	0	0	-0.258007	-0.118626	-0.574727	0.547409	0.996658	0	0
0.54	0.435526	1.33598	1.32457	0.920501	0.417897	1.00711	0.571592	0.0477571	-0.16327	0.190212	-0.298348	0	0	-0.0499191	-0.0951394	-0.154068	0.432537	-0.0885245	0	0	0.0578495	0.0421157	-0.173738	-0.0779091	-0.302962	0.547528	0.338823	1.15727	0	0	-0.253659	-0.116205	-0.574025	0.531306	0.999329	0	0
0.55	0.458807	1.3317	1.30006	0.919748	0.432617	1.00693	0.578309	0.055003	-0.165258	0.222394	-0.29312	0	0	-0.0403812	-0.104539	-0.147762	0.474287	-0.103601	0	0	0.0650158	0.052773	-0.166911	-0.0851817	-0.307746	0.536552	0.340498	1.15096	0	0	-0.248718	-0.112539	-0.574793	0.514984	1.00331	0	0
0.56	0.483264	1.3272	1.2732	0.919097	0.447219	1.00713	0.58313	0.0637676	-0.160129	0.254622	-0.27594	0	0	-0.0277239	-0.11448	-0.141181	0.521108	-0.123739	0	0	0.0710982	0.0641614	-0.159601	-0.0916794	-0.312632	0.524553	0.343533	1.14384	0	0	-0.243858	-0.107129	-0.578995	0.499708	1.00494	0	0
0.57	0.502393	1.32166	1.25054	0.918545	0.461523	1.00753	0.588357	0.07327	-0.144531	0.287442	-0.256487	0	0	-0.0106404	-0.123464	-0.133061	0.571758	-0.14895	0	0	0.0775878	0.0744441	-0.152225	-0.0965927	-0.317265	0.514332	0.346553	1.13785	0	0	-0.239898	-0.10094	-0.585251	0.486205	1.00318	0	0
0.58	0.515914	1.3154	1.23299	0.918109	0.475578	1.00795	0.594243	0.0833539	-0.123816	0.320702	-0.236951	0	0	0.010594	-0.131517	-0.123088	0.625079	-0.179068	0	0	0.0846819	0.0829955	-0.14568	-0.100024	-0.321384	0.506493	0.349281	1.13321	0	0	-0.238706	-0.0951207	-0.591639	0.476977	1.00032	0	0
0.59	0.52541	1.30961	1.22065	0.917738	0.489402	1.0084	0.598567	0.0929263	-0.104663	0.350676	-0.216827	0	0	0.0346488	-0.138638	-0.11	0.679519	-0.213116	0	0	0.0909365	0.0894214	-0.142222	-0.101111	-0.324837	0.502869	0.3519	1.13123	0	0	-0.240527	-0.0899024	-0.598249	0.473626	1.00049	0	0
0.6	0.534564	1.30435	1.21208	0.917254	0.502958	1.00881	0.599706	0.100832	-0.0933776	0.374305	-0.195602	0	0	0.0613643	-0.145435	-0.0937813	0.736718	-0.250148	0	0	0.0958291	0.0944965	-0.144941	-0.0991904	-0.328148	0.504411	0.355216	1.13238	0	0	-0.245575	-0.0853343	-0.605146	0.476086	1.00987	0	0
0.61	0.54992	1.29984	1.20173	0.916412	0.516153	1.00917	0.595925	0.106865	-0.0933811	0.389757	-0.177384	0	0	0.0912114	-0.152765	-0.0768348	0.80475	-0.281051	0	0	0.0984378	0.0998993	-0.153678	-0.0945296	-0.332006	0.509849	0.359648	1.13551	0	0	-0.252367	-0.0808944	-0.613802	0.483544	1.02659	0	0
0.62	0.572195	1.29601	1.18844	0.915392	0.529064	1.00958	0.587095	0.111911	-0.0997199	0.398006	-0.160082	0	0	0.120783	-0.161216	-0.0494186	0.856213	-0.322327	0	0	0.0994796	0.105802	-0.166562	-0.0882468	-0.335711	0.5181	0.364411	1.1399	0	0	-0.258504	-0.0763797	-0.627834	0.492698	1.04901	0	0
0.63	0.59906	1.29211	1.17324	0.914073	0.541673	1.00992	0.575113	0.116639	-0.108078	0.400678	-0.145594	0	0	0.153152	-0.169025	-0.0222986	0.914415	-0.358147	0	0	0.0997904	0.112726	-0.180885	-0.0828483	-0.340314	0.52386	0.37249	1.14222	0	0	-0.263972	-0.0718197	-0.640923	0.50378	1.06711	0	0
0.64	0.626929	1.28853	1.15738	0.912721	0.554206	1.01038	0.56104	0.121709	-0.117966	0.399063	-0.133442	0	0	0.185223	-0.177855	0.00267055	0.969367	-0.392622	0	0	0.100147	0.119865	-0.193213	-0.078995	-0.345199	0.526197	0.382053	1.14308	0	0	-0.268035	-0.0677758	-0.651795	0.514637	1.0773	0	0
0.65	0.652288	1.28597	1.14291	0.911389	0.566759	1.01115	0.545424	0.126622	-0.129767	0.395014	-0.123774	0	0	0.215382	-0.184632	0.024367	1.01944	-0.415285	0	0	0.10045	0.126383	-0.201981	-0.0768689	-0.350007	0.523779	0.392164	1.14196	0	0	-0.270078	-0.0644953	-0.660003	0.523242	1.07979	0	0
0.66	0.673857	1.28483	1.13067	0.910126	0.579308	1.01235	0.528256	0.131002	-0.143005	0.389082	-0.115609	0	0	0.243148	-0.189768	0.0419673	1.0638	-0.422386	0	0	0.100163	0.131889	-0.207251	-0.0758265	-0.354505	0.517915	0.40264	1.14018	0	0	-0.270232	-0.0624228	-0.664904	0.528639	1.07925	0	0
0.67	0.689197	1.28515	1.12126	0.909154	0.591906	1.01392	0.509794	0.134997	-0.154119	0.381271	-0.110131	0	0	0.268029	-0.193285	0.0539149	1.10213	-0.414763	0	0	0.0994849	0.135525	-0.207757	-0.0748855	-0.357849	0.510423	0.411483	1.13804	0	0	-0.270212	-0.0624811	-0.664283	0.531462	1.07944	0	0
0.68	0.700725	1.28791	1.11237	0.908405	0.604667	1.01589	0.488828	0.138865	-0.163876	0.372762	-0.105736	0	0	0.288501	-0.195566	0.0603124	1.13505	-0.394652	0	0	0.0973501	0.137351	-0.203346	-0.0750406	-0.36064	0.500094	0.420378	1.13543	0	0	-0.270012	-0.0631986	-0.661696	0.533298	1.07812	0	0
0.69	0.711212	1.29456	1.10246	0.907717	0.617497	1.01838	0.463015	0.141912	-0.171222	0.361753	-0.102738	0	0	0.303207	-0.195808	0.0614151	1.16467	-0.362475	0	0	0.091527	0.137315	-0.195221	-0.0758563	-0.362781	0.48591	0.429721	1.13348	0	0	-0.268844	-0.0652604	-0.656145	0.53274	1.07682	0	0
0.7	0.720734	1.30381	1.09125	0.907157	0.630429	1.02122	0.43386	0.144356	-0.175678	0.349468	-0.101646	0	0	0.313727	-0.194894	0.057614	1.19081	-0.32409	0	0	0.083403	0.135618	-0.183701	-0.0772661	-0.363816	0.468753	0.438782	1.13334	0	0	-0.267535	-0.0691104	-0.64712	0.529543	1.07806	0	0
0.71	0.727915	1.3142	1.08147	0.906584	0.64332	1.02419	0.403704	0.145541	-0.178956	0.337598	-0.101647	0	0	0.322277	-0.192699	0.0515462	1.21176	-0.291127	0	0	0.0752263	0.132106	-0.171789	-0.0772024	-0.364084	0.455167	0.445508	1.13518	0	0	-0.267599	-0.0733495	-0.638309	0.526029	1.08217	0	0
